<svg xmlns="http://www.w3.org/2000/svg" viewBox="0 0 149 149" role="img" aria-label="Burn logo">
  <path
    fill="#ffb429"
    d="M110.169769,134.118408
    C107.460945,136.855881 104.969009,139.306152 102.477081,141.756439
    C108.586159,114.902153 105.283386,91.575012 84.807716,72.779205
    C84.325340,72.912743 83.842964,73.046280 83.360588,73.179825
    C83.565094,73.815895 83.653191,74.522812 83.990944,75.077789
    C95.841553,94.550247 94.189507,114.310844 83.861626,133.412064
    C76.156845,147.661911 60.840862,150.298355 47.477978,141.006836
    C39.929272,135.758041 34.960705,128.526001 32.578564,119.754044
    C29.049152,106.757393 30.126923,93.986786 36.116402,81.864784
    C37.679134,78.701996 40.231575,76.028229 42.918205,73.180542
    C43.857986,83.654381 49.125942,89.841919 60.263691,92.699104
    C51.477638,77.457893 52.091595,62.240685 55.562965,46.982502
    C58.975895,31.981176 63.941029,17.648239 78.028236,6.882453
    C77.635201,10.052164 77.429504,11.915685 77.169991,13.771678
    C75.028915,29.083879 80.200012,41.896656 90.429398,53.057755
    C96.165642,59.316479 102.016083,65.501122 107.335335,72.105530
    C121.486366,89.675522 123.925133,116.364922 110.169769,134.118408
    M60.593819,92.519859
    C60.593819,92.519859 60.247406,92.352226 60.247406,92.352226
    C60.247406,92.352226 60.313431,92.674896 60.593819,92.519859 z"
  />
</svg>
